<svg width="28" height="24" viewBox="0 0 28 24" fill="none" xmlns="http://www.w3.org/2000/svg">
<rect x="1" y="3" width="26" height="20" rx="3" stroke="#272727" stroke-width="2" stroke-linejoin="round"/>
<path d="M7 1V5" stroke="#272727" stroke-width="2" stroke-linecap="round"/>
<path d="M21 1V5" stroke="#272727" stroke-width="2" stroke-linecap="round"/>
<rect x="5" y="10" width="3" height="3" fill="#272727"/>
<rect x="5" y="14" width="3" height="3" fill="#272727"/>
<rect x="5" y="18" width="3" height="3" fill="#272727"/>
<rect x="10" y="10" width="3" height="3" fill="#272727"/>
<rect x="10" y="14" width="3" height="3" fill="#272727"/>
<rect x="10" y="18" width="3" height="3" fill="#272727"/>
<rect x="15" y="10" width="3" height="3" fill="#272727"/>
<rect x="15" y="14" width="3" height="3" fill="#272727"/>
<rect x="15" y="18" width="3" height="3" fill="#272727"/>
<rect x="20" y="10" width="3" height="3" fill="#272727"/>
<rect x="20" y="14" width="3" height="3" fill="#272727"/>
<rect x="20" y="18" width="3" height="3" fill="#272727"/>
<path d="M1 6C1 4.34315 2.34315 3 4 3H24C25.6569 3 27 4.34315 27 6V8H1V6Z" stroke="#272727" stroke-width="2"/>
</svg>
